<?xml version="1.0" encoding="utf-8"?>
<!-- Generator: Adobe Illustrator 16.0.3, SVG Export Plug-In . SVG Version: 6.00 Build 0)  -->
<!DOCTYPE svg PUBLIC "-//W3C//DTD SVG 1.1//EN" "http://www.w3.org/Graphics/SVG/1.1/DTD/svg11.dtd">
<svg version="1.1" id="Layer_1" xmlns="http://www.w3.org/2000/svg" xmlns:xlink="http://www.w3.org/1999/xlink" x="0px" y="0px"
	 width="600px" height="600px" viewBox="0 0 600 600" enable-background="new 0 0 600 600" xml:space="preserve">
<path fill="#ED1855" stroke="#FFFFFF" stroke-width="32.2048" stroke-miterlimit="10" d="M411.814,146.109
	c33.665,79.566,13.344,164.472-45.328,189.605c-58.656,25.123-133.521-18.967-167.161-98.533
	c-33.654-79.531-13.339-164.447,45.312-189.605C303.33,22.438,378.149,66.558,411.814,146.109z"/>
<path fill="#ED1855" stroke="#FFFFFF" stroke-width="32.033" stroke-miterlimit="10" d="M461.833,452.257
	C372.199,548.454,244.568,574.428,176.69,510.3c-67.858-64.153-50.25-194.081,39.348-290.252
	c89.643-96.172,217.316-122.186,285.194-58.038C569.134,226.138,551.476,356.075,461.833,452.257z"/>
<path fill="#ED1855" stroke="#FFFFFF" stroke-width="32.033" stroke-miterlimit="10" d="M239.67,152.924
	c85.083,26.024,138.162,99.534,118.683,164.115c-19.511,64.621-104.276,95.92-189.309,69.831
	C83.931,360.862,30.771,287.361,50.296,222.725C69.802,158.103,154.598,126.835,239.67,152.924z"/>
</svg>
