<?xml version="1.0" encoding="utf-8"?>
<!-- Generator: Adobe Illustrator 16.0.3, SVG Export Plug-In . SVG Version: 6.00 Build 0)  -->
<!DOCTYPE svg PUBLIC "-//W3C//DTD SVG 1.1//EN" "http://www.w3.org/Graphics/SVG/1.1/DTD/svg11.dtd">
<svg version="1.1" id="Layer_1" 
	xmlns="http://www.w3.org/2000/svg" 
	xmlns:xlink="http://www.w3.org/1999/xlink" x="0px" y="0px" width="900px" height="300px" viewBox="0 0 900 300" enable-background="new 0 0 900 300" xml:space="preserve">

  <style type="text/css">
	  <![CDATA[
			@font-face {
			font-family: 'Quicksand';
			font-style: normal;
			font-weight: normal;
			src: local('Quicksand Regular'), local('Quicksand-Regular'), url(https://fonts.gstatic.com/s/quicksand/v7/sKd0EMYPAh5PYCRKSryvW6CWcynf_cDxXwCLxiixG1c.ttf) format('truetype');
		}
		@font-face {
			font-family: 'Quicksand';
			font-style: normal;
			font-weight: medium;
			src: local('Quicksand Medium'), local('Quicksand-Medium'), url(https://fonts.gstatic.com/s/quicksand/v7/FRGja7LlrG1Mypm0hCq0DonF5uFdDttMLvmWuJdhhgs.ttf) format('truetype');
		}
		@font-face {
			font-family: 'Quicksand';
			font-style: normal;
			font-weight: bold;
			src: local('Quicksand Bold'), local('Quicksand-Bold'), url(https://fonts.gstatic.com/s/quicksand/v7/32nyIRHyCu6iqEka_hbKsonF5uFdDttMLvmWuJdhhgs.ttf) format('truetype');
		}
          ]]>
	</style>
	<text transform="matrix(0.999 0 0 1 251.1895 192.751)" fill="#3A3A3A" font-family="Quicksand" font-weight="bold"  font-size="182.4815">kumori</text>
	<path fill="#22252C" stroke="#FFFFFF" stroke-width="13.3864" stroke-miterlimit="10" d="M156.936,98.216
	c12.521,29.578,4.965,61.166-16.853,70.523c-21.826,9.341-49.675-7.046-62.18-36.66c-12.53-29.58-4.965-61.175,16.852-70.524
	C116.59,52.197,144.412,68.619,156.936,98.216z"/>
	<path fill="#22252C" stroke="#FFFFFF" stroke-width="13.3864" stroke-miterlimit="10" d="M175.543,212.078
	c-33.327,35.784-80.815,45.444-106.065,21.583c-25.231-23.851-18.698-72.172,14.656-107.963
	c33.335-35.747,80.813-45.437,106.063-21.566C215.458,127.975,208.888,176.306,175.543,212.078z"/>
	<path fill="#22252C" stroke="#FFFFFF" stroke-width="13.3864" stroke-miterlimit="10" d="M92.917,100.743
	c31.632,9.672,51.371,37.029,44.137,61.059c-7.252,24.005-38.795,35.665-70.399,25.976c-31.686-9.697-51.451-37.027-44.189-61.067
	C29.735,102.679,61.268,91.027,92.917,100.743z"/>
	<g>
		<text transform="matrix(0.9207 0 0 1 266.8379 248.418)" fill="#3A3A3A" stroke="#3A3A3A" stroke-width="3.1356" stroke-miterlimit="10" font-family="Quicksand" font-weight="normal" font-size="64.6082">s y s t e m s</text>
	</g>
</svg>
